<?xml version="1.0" encoding="UTF-8" standalone="no"?>
<!-- Generator: Adobe Illustrator 21.0.2, SVG Export Plug-In . SVG Version: 6.00 Build 0)  -->

<svg
   version="1.1"
   id="Layer_1"
   x="0px"
   y="0px"
   viewBox="0 0 381553.3 39840.159"
   xml:space="preserve"
   width="381553.31"
   height="39840.16"
   xmlns="http://www.w3.org/2000/svg"
   xmlns:svg="http://www.w3.org/2000/svg"><defs
   id="defs34" />
<style
   type="text/css"
   id="style1">
	.st0{fill:#71777A;}
	.st1{fill:none;stroke:#71777A;stroke-width:0.6752;stroke-miterlimit:10;}
	.st2{fill:#FFFFFF;}
	.st3{fill:#E40520;}
	.st4{fill:#E40520;stroke:#E40520;stroke-width:0.6872;stroke-miterlimit:10;}
	.st5{fill:#142534;}
</style>
<polygon
   class="st0"
   points="110.2,48.8 2,48.8 2,1.8 184.8,1.7 184.8,48.8 "
   id="polygon1" />
<polygon
   class="st1"
   points="110.2,48.8 2,48.8 2,1.8 184.8,1.7 184.8,48.8 "
   id="polygon2" />
<polygon
   class="st2"
   points="14.7,16.7 14.7,24.6 26.6,24.6 26.6,30.4 14.7,30.4 14.7,39.5 8.4,39.5 8.4,10.8 30.1,10.8 30,16.7 "
   id="polygon3" />
<path
   class="st2"
   d="m 86.7,16.6 c 0,0 -11.1,0 -12.1,0 -1.2,0 -2.2,0.4 -2.8,1.4 -0.5,0.8 -0.3,2.2 0.4,2.9 1.1,1.1 1.6,1 5.8,1.1 0.6,-0.1 1.1,-0.1 1.6,0 3.4,0.2 6.8,2.4 7.9,5.8 1.3,3.7 0,7.5 -2.8,10 -1.8,1.4 -3.1,1.7 -6.2,1.8 H 65.4 v -5.9 c 3.2,0 7.9,0 10.8,0 1.7,0 4.9,0.4 5.7,-1.9 0.3,-1 0.4,-2.8 -1.6,-3.7 -3.3,-1 -8,0.5 -10.6,-1.5 -2.6,-1.5 -4.4,-4.3 -4.3,-7.4 0.1,-3.1 1.7,-6.1 4.6,-7.5 1.7,-0.7 3.8,-0.9 5.4,-0.9 3.6,0 8.8,0 11.3,0 0,0 0,5.8 0,5.8 z"
   id="path3" />
<path
   class="st2"
   d="m 107.3,23.2 c -0.9,1.3 -2.3,1.6 -3.8,1.8 v 7.4 c 1.9,3.1 4.4,7.2 4.4,7.2 h 7.1 c 0,0 -5.1,-8.7 -5.9,-10.2 1.3,-0.5 2.8,-1.5 3.8,-2.7 1.9,-2.8 2.3,-7.2 0.7,-10.3 -1.8,-3.7 -5.8,-5.5 -9.5,-5.5 h -0.5 v 5.9 c 1.6,0.1 3.2,0.7 4.2,2.2 0.4,1.2 0.3,3.1 -0.5,4.2 z m -3.9,1.8 c -0.6,0 -1.3,0 -1.8,0 -1.1,-0.1 -2.7,0 -2.7,0 v -8.2 c 1.2,0.1 2.9,-0.1 4.6,0.1 V 11 L 92.6,10.9 v 28.8 h 6.3 v -9.2 c 0,0 2.7,0 3.4,0 l 1.2,1.9 z"
   id="path4" />
<g
   id="g10">
	<path
   class="st3"
   d="M 35.6,57.7 V 58 c 0.1,13 8.6,25.7 20.8,30.5 4.6,2.1 9.2,2.6 14.8,2.6 H 72 v 24.5 c 0,0 -1.3,0.1 -2.1,0.1 C 47,116.2 25.4,102.4 16.2,81.3 14.6,77.7 13.4,74 12.4,70.2 L 12.3,69.7 H 2 v -12 h 27.9 z"
   id="path5" />
	<path
   class="st4"
   d="M 35.6,57.7 V 58 c 0.1,13 8.6,25.7 20.8,30.5 4.6,2.1 9.2,2.6 14.8,2.6 H 72 v 24.5 c 0,0 -1.3,0.1 -2.1,0.1 C 47,116.2 25.4,102.4 16.2,81.3 14.6,77.7 13.4,74 12.4,70.2 L 12.3,69.7 H 2 v -12 h 27.9 z"
   id="path6" />
	<polygon
   class="st3"
   points="175.7,115.4 120.7,115.4 120.7,91.1 151.1,91.1 151.1,57.7 184.8,57.7 184.8,69.8 175.7,69.8 "
   id="polygon6" />
	<polygon
   class="st4"
   points="175.7,115.4 120.7,115.4 120.7,91.1 151.1,91.1 151.1,57.7 184.8,57.7 184.8,69.8 175.7,69.8 "
   id="polygon7" />
	<polygon
   class="st3"
   points="84.1,91.2 84.1,63.7 108.7,63.7 108.7,91.3 "
   id="polygon8" />
	<polygon
   class="st4"
   points="84.1,91.2 84.1,63.7 108.7,63.7 108.7,91.3 "
   id="polygon9" />
	<path
   class="st3"
   d="m 108.7,115.9 v 20.9 h 0.3 c 12.4,-0.5 24.5,0.9 34.5,6.6 14.3,7.7 25.1,22.5 27.9,38 0.1,0.5 0.2,1.1 0.2,1.1 l 13.1,0.1 v 15 h -36.5 c 0,0 -0.1,0.1 -0.1,-0.5 0.5,-8.2 -1,-15.8 -5.3,-22.2 -6.3,-9.1 -16,-13.8 -26.8,-13.6 H 84.1 v 27.2 H 16.9 v 8.7 H 2 V 164 H 59.7 V 127.7 H 84.2 V 96.2 Z"
   id="path9" />
	<path
   class="st4"
   d="m 108.7,115.9 v 20.9 h 0.3 c 12.4,-0.5 24.5,0.9 34.5,6.6 14.3,7.7 25.1,22.5 27.9,38 0.1,0.5 0.2,1.1 0.2,1.1 l 13.1,0.1 v 15 h -36.5 c 0,0 -0.1,0.1 -0.1,-0.5 0.5,-8.2 -1,-15.8 -5.3,-22.2 -6.3,-9.1 -16,-13.8 -26.8,-13.6 H 84.1 v 27.2 H 16.9 v 8.7 H 2 V 164 H 59.7 V 127.7 H 84.2 V 96.2 Z"
   id="path10" />
</g>
<path
   class="st2"
   d="m 133.5,34 v 0 6.4 0 c 8.4,0 15.3,-6.9 15.3,-15.3 0,-8.5 -6.9,-15.2 -15.3,-15.2 v 0 6.3 0 c 4.9,0 8.9,4 8.9,9 0,4.8 -4,8.8 -8.9,8.8 z m 0,0 c -4.9,0 -9,-4 -9,-8.9 0,-4.9 4,-9 9,-9 V 9.9 c -8.5,0 -15.4,6.7 -15.4,15.2 0,8.4 6.9,15.3 15.4,15.3 z"
   id="path11" />
<path
   class="st2"
   d="m 174,32 c -1.6,1.5 -3.9,2.4 -6.3,2.4 -5.1,0 -9.2,-4.2 -9.2,-9.2 0,-5.1 4.2,-9.2 9.2,-9.2 2.3,0 4.6,0.7 6.1,2 l 4,-4.4 c -2.7,-2.3 -6.3,-3.7 -10.2,-3.7 -8.5,0 -15.4,6.7 -15.4,15.2 0,8.4 6.9,15.3 15.4,15.3 3.9,0 7.5,-1.5 10.2,-4 z"
   id="path12" />
<path
   class="st2"
   d="m 46.9,34 v 0 l -0.1,6.4 h 0.1 c 8.4,0 15.3,-6.9 15.3,-15.3 0,-8.5 -6.9,-15.2 -15.3,-15.2 h -0.1 v 6.3 h 0.1 c 4.9,0 8.9,4 8.9,9 0,4.8 -4.1,8.8 -8.9,8.8 z m -0.1,0 c -4.9,0 -8.9,-4 -8.9,-8.9 0,-4.9 4,-9 8.9,-9 V 9.9 c -8.4,0 -15.3,6.7 -15.3,15.2 0,8.4 6.9,15.3 15.3,15.3 0,0 0,-6.4 0,-6.4 z"
   id="path13" />
<g
   id="g34">
	<path
   class="st5"
   d="m 228.6,189.5 3.7,0.4 c -1,2.7 -2.3,4.8 -4,6.1 -1.8,1.4 -3.7,2 -5.9,2 -2.3,0 -4.2,-0.8 -5.7,-2.3 -1.5,-1.5 -2.2,-3.7 -2.2,-6.4 0,-2.3 0.4,-4.8 1.4,-7.1 1,-2.3 2.3,-4.1 4.1,-5.3 1.8,-1.2 3.8,-1.8 6,-1.8 2.3,0 4.2,0.7 5.6,2 1.4,1.4 2,3.1 2,5.3 l -3.7,0.3 c 0,-1.4 -0.4,-2.5 -1.2,-3.3 -0.8,-0.8 -1.8,-1.2 -3.1,-1.2 -1.5,0 -2.7,0.4 -4,1.4 -1.1,1 -1.9,2.3 -2.6,4.4 -0.7,1.9 -1,3.8 -1,5.6 0,1.9 0.4,3.3 1.2,4.2 0.8,1 1.8,1.4 3,1.4 1.2,0 2.3,-0.4 3.4,-1.4 1.4,-1 2.4,-2.5 3,-4.3 z"
   id="path14" />
	<path
   class="st5"
   d="m 235.2,189.1 c 0,-4.2 1.2,-7.8 3.8,-10.6 2,-2.3 4.8,-3.4 8.2,-3.4 2.6,0 4.8,0.8 6.4,2.5 1.6,1.7 2.5,3.8 2.5,6.7 0,2.5 -0.5,4.9 -1.5,7 -1,2.2 -2.5,3.8 -4.4,4.9 -1.9,1.1 -3.8,1.8 -5.9,1.8 -1.6,0 -3.3,-0.4 -4.6,-1.1 -1.4,-0.7 -2.5,-1.8 -3.1,-3.1 -1,-1.4 -1.4,-2.9 -1.4,-4.7 z m 3.7,-0.3 c 0,2 0.5,3.7 1.5,4.6 1,1.1 2.2,1.6 3.8,1.6 0.8,0 1.6,-0.1 2.3,-0.5 0.7,-0.4 1.5,-0.8 2.2,-1.5 0.7,-0.7 1.2,-1.4 1.8,-2.3 0.4,-0.8 0.8,-1.8 1.1,-2.7 0.4,-1.4 0.7,-2.7 0.7,-4 0,-1.9 -0.5,-3.5 -1.5,-4.6 -1,-1.1 -2.2,-1.6 -3.8,-1.6 -1.2,0 -2.2,0.3 -3.1,0.8 -1,0.5 -1.8,1.4 -2.6,2.5 -0.8,1.1 -1.4,2.3 -1.8,3.7 -0.3,1.6 -0.6,2.8 -0.6,4 z"
   id="path15" />
	<path
   class="st5"
   d="m 258,197.4 4.5,-21.8 h 3.4 l -0.8,3.8 c 1.5,-1.5 2.9,-2.6 4.1,-3.3 1.2,-0.7 2.6,-1.1 4,-1.1 1.8,0 3.1,0.5 4.2,1.5 1.1,1 1.5,2.2 1.5,3.8 0,0.8 -0.1,2 -0.5,3.8 l -2.7,13.2 H 272 l 2.9,-13.9 c 0.3,-1.4 0.4,-2.3 0.4,-3 0,-0.7 -0.3,-1.4 -0.8,-1.8 -0.5,-0.4 -1.2,-0.7 -2.2,-0.7 -1.9,0 -3.5,0.7 -5,2 -1.5,1.3 -2.6,3.7 -3.3,7.1 l -2.2,10.2 z"
   id="path16" />
	<path
   class="st5"
   d="m 281.8,189.9 3.7,-0.3 c 0,1.1 0.1,2 0.5,2.7 0.3,0.8 1,1.4 1.8,1.9 0.8,0.5 1.9,0.7 3.1,0.7 1.6,0 2.9,-0.3 3.7,-1 0.8,-0.7 1.2,-1.5 1.2,-2.3 0,-0.7 -0.3,-1.2 -0.7,-1.8 -0.5,-0.5 -1.8,-1.2 -3.7,-2.2 -1.9,-0.8 -3.3,-1.5 -3.8,-1.8 -1,-0.5 -1.6,-1.2 -2,-2 -0.4,-0.8 -0.7,-1.6 -0.7,-2.6 0,-1.8 0.7,-3.3 2,-4.5 1.4,-1.2 3.3,-1.9 5.7,-1.9 2.7,0 4.8,0.7 6.3,1.9 1.5,1.2 2.2,3 2.2,5 l -3.7,0.3 c 0,-1.4 -0.5,-2.3 -1.4,-3.1 -0.9,-0.8 -2.2,-1.1 -3.7,-1.1 -1.2,0 -2.3,0.3 -3,0.8 -0.7,0.5 -1.1,1.2 -1.1,1.9 0,0.7 0.3,1.2 1,1.8 0.4,0.4 1.5,1 3.1,1.6 2.9,1.2 4.6,2.2 5.5,2.9 1.2,1.1 1.8,2.6 1.8,4.1 0,1.1 -0.3,2.2 -1,3.1 -0.7,1.1 -1.6,1.9 -3,2.5 -1.4,0.6 -3,1 -4.8,1 -2.6,0 -4.6,-0.7 -6.4,-1.9 -1.8,-0.8 -2.6,-2.8 -2.6,-5.7 z"
   id="path17" />
	<path
   class="st5"
   d="m 311.2,194.4 -0.7,3 c -1,0.3 -1.8,0.4 -2.6,0.4 -1.5,0 -2.7,-0.4 -3.5,-1.1 -0.7,-0.5 -1,-1.2 -1,-2.2 0,-0.5 0.1,-1.6 0.5,-3.3 l 2.6,-12.7 h -3 l 0.5,-2.9 h 3 l 1.1,-5.3 4.2,-2.6 -1.6,7.9 h 3.7 l -0.7,2.9 H 310 l -2.6,12.1 c -0.3,1.5 -0.4,2.5 -0.4,2.7 0,0.4 0.1,0.8 0.4,1 0.3,0.3 0.7,0.4 1.2,0.4 1.3,0 1.9,-0.1 2.6,-0.3 z"
   id="path18" />
	<path
   class="st5"
   d="m 314.2,197.4 4.5,-21.8 h 3.3 l -1,4.5 c 1.1,-1.6 2.2,-3 3.3,-3.7 1.1,-0.8 2.2,-1.2 3.3,-1.2 0.7,0 1.6,0.3 2.7,0.8 l -1.5,3.4 c -0.7,-0.4 -1.4,-0.7 -2.2,-0.7 -1.4,0 -2.6,0.7 -4,2.2 -1.4,1.5 -2.5,4.1 -3.3,7.8 l -1.9,8.7 z"
   id="path19" />
	<path
   class="st5"
   d="m 343.1,193.5 c -2.6,3 -5.3,4.5 -8,4.5 -1.6,0 -3,-0.5 -4.1,-1.5 -1.1,-1 -1.5,-2.2 -1.5,-3.5 0,-1 0.3,-2.5 0.7,-4.8 l 2.6,-12.5 h 3.7 l -2.9,13.9 c -0.3,1.2 -0.4,2 -0.4,2.7 0,0.8 0.3,1.5 0.7,1.9 0.5,0.4 1.2,0.7 2.2,0.7 1.1,0 2,-0.3 3,-0.8 1,-0.5 1.9,-1.2 2.6,-2 0.7,-0.8 1.4,-1.9 1.8,-3 0.3,-0.8 0.7,-2 1.1,-4 l 1.9,-9.4 h 3.7 l -4.5,21.8 h -3.4 z"
   id="path20" />
	<path
   class="st5"
   d="m 366.7,189.5 3.7,0.4 c -1,2.7 -2.3,4.8 -4,6.1 -1.8,1.4 -3.7,2 -5.9,2 -2.3,0 -4.4,-0.8 -5.7,-2.3 -1.5,-1.5 -2.2,-3.7 -2.2,-6.4 0,-2.3 0.4,-4.8 1.4,-7.1 1,-2.3 2.3,-4.1 4.1,-5.3 1.8,-1.2 3.8,-1.8 6,-1.8 2.3,0 4.2,0.7 5.6,2 1.4,1.4 2,3.1 2,5.3 l -3.7,0.3 c 0,-1.4 -0.4,-2.5 -1.2,-3.3 -0.8,-0.8 -1.8,-1.2 -3.1,-1.2 -1.5,0 -2.7,0.4 -4,1.4 -1.1,1 -1.9,2.3 -2.6,4.4 -0.7,1.9 -1,3.8 -1,5.6 0,1.9 0.4,3.3 1.2,4.2 0.8,1 1.8,1.4 3,1.4 1.2,0 2.3,-0.4 3.4,-1.4 1.3,-0.9 2.4,-2.5 3,-4.3 z"
   id="path21" />
	<path
   class="st5"
   d="m 381.5,194.4 -0.7,3 c -1,0.3 -1.8,0.4 -2.6,0.4 -1.5,0 -2.7,-0.4 -3.5,-1.1 -0.7,-0.5 -1,-1.2 -1,-2.2 0,-0.5 0.1,-1.6 0.5,-3.3 l 2.6,-12.7 h -3 l 0.5,-2.9 h 3 l 1.1,-5.3 4.2,-2.6 -1.6,7.9 h 3.7 l -0.7,2.9 h -3.7 l -2.6,12.1 c -0.3,1.5 -0.4,2.5 -0.4,2.7 0,0.4 0.1,0.8 0.4,1 0.3,0.3 0.7,0.4 1.2,0.4 1.2,0 1.9,-0.1 2.6,-0.3 z"
   id="path22" />
	<path
   class="st5"
   d="m 384.3,197.4 4.5,-21.8 h 3.7 l -4.5,21.8 z m 5.5,-25.9 0.8,-4.2 h 3.7 l -0.8,4.2 z"
   id="path23" />
	<path
   class="st5"
   d="m 399.3,197.4 -3.5,-21.8 h 3.7 l 1.9,12 c 0.3,1.4 0.4,3.4 0.8,6.4 0.7,-1.5 1.6,-3.3 2.7,-5.3 l 7.4,-13.1 h 4 l -12.5,21.8 z"
   id="path24" />
	<path
   class="st5"
   d="m 431,190.1 3.7,0.4 c -0.5,1.8 -1.8,3.5 -3.5,5.2 -1.9,1.6 -4.1,2.5 -6.7,2.5 -1.6,0 -3.1,-0.4 -4.5,-1.1 -1.4,-0.7 -2.3,-1.8 -3.1,-3.3 -0.8,-1.5 -1.1,-3 -1.1,-4.9 0,-2.5 0.5,-4.6 1.6,-7 1.1,-2.2 2.6,-4 4.2,-5 1.8,-1.1 3.7,-1.6 5.7,-1.6 2.6,0 4.6,0.8 6.3,2.5 1.5,1.6 2.3,3.8 2.3,6.7 0,1.1 -0.1,2.2 -0.3,3.3 h -16.1 c 0,0.4 -0.1,0.8 -0.1,1.1 0,2 0.4,3.5 1.4,4.6 1,1.1 2,1.6 3.4,1.6 1.2,0 2.6,-0.4 3.8,-1.2 1.2,-1 2.2,-2.3 3,-3.8 z m -10.9,-5.5 h 12.3 c 0,-0.4 0,-0.7 0,-0.8 0,-1.9 -0.4,-3.3 -1.4,-4.2 -1,-1 -2.2,-1.5 -3.5,-1.5 -1.6,0 -3,0.5 -4.4,1.6 -1.4,1.1 -2.3,2.7 -3,4.9 z"
   id="path25" />
	<path
   class="st5"
   d="m 450.4,189.9 3.7,-0.3 c 0,1.1 0.1,2 0.5,2.7 0.3,0.8 1,1.4 1.8,1.9 0.8,0.5 1.9,0.7 3.1,0.7 1.6,0 2.9,-0.3 3.7,-1 0.8,-0.7 1.2,-1.5 1.2,-2.3 0,-0.7 -0.3,-1.2 -0.7,-1.8 -0.5,-0.5 -1.8,-1.2 -3.7,-2.2 -1.9,-0.8 -3.3,-1.5 -3.8,-1.8 -1,-0.5 -1.6,-1.2 -2,-2 -0.4,-0.8 -0.7,-1.6 -0.7,-2.6 0,-1.8 0.7,-3.3 2,-4.5 1.4,-1.2 3.3,-1.9 5.7,-1.9 2.7,0 4.8,0.7 6.3,1.9 1.5,1.2 2.2,3 2.2,5 L 466,182 c 0,-1.4 -0.5,-2.3 -1.4,-3.1 -0.8,-0.8 -2.2,-1.1 -3.7,-1.1 -1.2,0 -2.3,0.3 -3,0.8 -0.7,0.5 -1.1,1.2 -1.1,1.9 0,0.7 0.3,1.2 1,1.8 0.4,0.4 1.5,1 3.1,1.6 2.9,1.2 4.6,2.2 5.5,2.9 1.2,1.1 1.8,2.6 1.8,4.1 0,1.1 -0.3,2.2 -1,3.1 -0.7,1.1 -1.6,1.9 -3,2.5 -1.4,0.6 -3,1 -4.8,1 -2.6,0 -4.6,-0.7 -6.4,-1.9 -2,-0.8 -2.8,-2.8 -2.6,-5.7 z"
   id="path26" />
	<path
   class="st5"
   d="m 471.8,189.1 c 0,-4.2 1.2,-7.8 3.8,-10.6 2,-2.3 4.8,-3.4 8.2,-3.4 2.6,0 4.8,0.8 6.4,2.5 1.6,1.7 2.5,3.8 2.5,6.7 0,2.5 -0.5,4.9 -1.5,7 -1,2.2 -2.5,3.8 -4.4,4.9 -1.9,1.1 -3.8,1.8 -5.9,1.8 -1.6,0 -3.3,-0.4 -4.6,-1.1 -1.4,-0.7 -2.5,-1.8 -3.1,-3.1 -1.2,-1.4 -1.4,-2.9 -1.4,-4.7 z m 3.7,-0.3 c 0,2 0.5,3.7 1.5,4.6 1,1 2.2,1.6 3.8,1.6 0.8,0 1.6,-0.1 2.3,-0.5 0.7,-0.4 1.5,-0.8 2.2,-1.5 0.7,-0.7 1.2,-1.4 1.8,-2.3 0.5,-1 0.8,-1.8 1.1,-2.7 0.4,-1.4 0.7,-2.7 0.7,-4 0,-1.9 -0.5,-3.5 -1.5,-4.6 -1,-1.1 -2.2,-1.6 -3.8,-1.6 -1.2,0 -2.2,0.3 -3.1,0.8 -1,0.5 -1.8,1.4 -2.6,2.5 -0.8,1.1 -1.4,2.3 -1.8,3.7 -0.5,1.6 -0.6,2.8 -0.6,4 z"
   id="path27" />
	<path
   class="st5"
   d="m 494.3,197.4 6.3,-30.1 h 3.7 l -6.3,30.1 z"
   id="path28" />
	<path
   class="st5"
   d="m 518.8,193.5 c -2.6,3 -5.3,4.5 -8,4.5 -1.6,0 -3,-0.5 -4.1,-1.5 -1.1,-1 -1.5,-2.2 -1.5,-3.5 0,-1 0.3,-2.5 0.7,-4.8 l 2.6,-12.5 h 3.7 l -2.9,13.9 c -0.3,1.2 -0.4,2 -0.4,2.7 0,0.8 0.3,1.5 0.7,1.9 0.5,0.4 1.2,0.7 2.2,0.7 1.1,0 2,-0.3 3,-0.8 1,-0.5 1.9,-1.2 2.6,-2 0.7,-0.8 1.4,-1.9 1.8,-3 0.3,-0.8 0.7,-2 1.1,-4 l 1.9,-9.4 h 3.7 l -4.5,21.8 H 518 Z"
   id="path29" />
	<path
   class="st5"
   d="m 536,194.4 -0.7,3 c -1,0.3 -1.8,0.4 -2.6,0.4 -1.5,0 -2.7,-0.4 -3.5,-1.1 -0.7,-0.5 -1,-1.2 -1,-2.2 0,-0.5 0.1,-1.6 0.5,-3.3 l 2.6,-12.7 h -3 l 0.5,-2.9 h 3 l 1.1,-5.3 4.2,-2.6 -1.6,7.9 h 3.7 l -0.7,2.9 h -3.7 l -2.6,12.1 c -0.3,1.5 -0.4,2.5 -0.4,2.7 0,0.4 0.1,0.8 0.4,1 0.3,0.3 0.7,0.4 1.2,0.4 1.3,0 1.9,-0.1 2.6,-0.3 z"
   id="path30" />
	<path
   class="st5"
   d="m 538.9,197.4 4.5,-21.8 h 3.7 l -4.5,21.8 z m 5.4,-25.9 0.8,-4.2 h 3.7 l -0.8,4.2 z"
   id="path31" />
	<path
   class="st5"
   d="m 549,189.1 c 0,-4.2 1.2,-7.8 3.8,-10.6 2,-2.3 4.8,-3.4 8.2,-3.4 2.6,0 4.8,0.8 6.4,2.5 1.6,1.6 2.5,3.8 2.5,6.7 0,2.5 -0.5,4.9 -1.5,7 -1,2.2 -2.5,3.8 -4.4,4.9 -1.9,1.1 -3.8,1.8 -5.9,1.8 -1.6,0 -3.3,-0.4 -4.6,-1.1 -1.4,-0.7 -2.5,-1.8 -3.1,-3.1 -1,-1.4 -1.4,-2.9 -1.4,-4.7 z m 3.8,-0.3 c 0,2 0.5,3.7 1.5,4.6 1,1.1 2.2,1.6 3.8,1.6 0.8,0 1.6,-0.1 2.3,-0.5 0.7,-0.4 1.5,-0.8 2.2,-1.5 0.7,-0.7 1.2,-1.4 1.8,-2.3 0.4,-0.8 0.8,-1.8 1.1,-2.7 0.4,-1.4 0.7,-2.7 0.7,-4 0,-1.9 -0.5,-3.5 -1.5,-4.6 -1,-1.1 -2.2,-1.6 -3.8,-1.6 -1.2,0 -2.2,0.3 -3.1,0.8 -0.9,0.5 -1.8,1.4 -2.6,2.5 -0.8,1.1 -1.4,2.3 -1.8,3.7 -0.5,1.6 -0.6,2.8 -0.6,4 z"
   id="path32" />
	<path
   class="st5"
   d="m 571.8,197.4 4.5,-21.8 h 3.4 l -0.8,3.8 c 1.5,-1.5 2.9,-2.6 4.1,-3.3 1.2,-0.7 2.6,-1.1 4,-1.1 1.8,0 3.1,0.5 4.2,1.5 1.1,1 1.5,2.2 1.5,3.8 0,0.8 -0.1,2 -0.5,3.8 l -2.7,13.2 h -3.7 l 2.9,-13.9 c 0.3,-1.4 0.4,-2.3 0.4,-3 0,-0.7 -0.3,-1.4 -0.8,-1.8 -0.5,-0.4 -1.2,-0.7 -2.2,-0.7 -1.9,0 -3.5,0.7 -5,2 -1.5,1.4 -2.6,3.7 -3.3,7.1 l -2.2,10.2 z"
   id="path33" />
	<path
   class="st5"
   d="m 595.6,189.9 3.7,-0.3 c 0,1.1 0.1,2 0.5,2.7 0.3,0.8 1,1.4 1.8,1.9 0.8,0.5 1.9,0.7 3.1,0.7 1.6,0 2.9,-0.3 3.7,-1 0.8,-0.7 1.2,-1.5 1.2,-2.3 0,-0.7 -0.3,-1.2 -0.7,-1.8 -0.5,-0.5 -1.8,-1.2 -3.7,-2.2 -1.9,-0.8 -3.3,-1.5 -3.8,-1.8 -1,-0.5 -1.6,-1.2 -2,-2 -0.4,-0.8 -0.7,-1.6 -0.7,-2.6 0,-1.8 0.7,-3.3 2,-4.5 1.4,-1.2 3.3,-1.9 5.7,-1.9 2.7,0 4.8,0.7 6.3,1.9 1.5,1.2 2.2,3 2.2,5 l -3.7,0.3 c 0,-1.4 -0.5,-2.3 -1.4,-3.1 -0.9,-0.8 -2.2,-1.1 -3.7,-1.1 -1.2,0 -2.3,0.3 -3,0.8 -0.7,0.5 -1.1,1.2 -1.1,1.9 0,0.7 0.3,1.2 1,1.8 0.4,0.4 1.5,1 3.1,1.6 2.9,1.2 4.6,2.2 5.5,2.9 1.2,1.1 1.8,2.6 1.8,4.1 0,1.1 -0.3,2.2 -1,3.1 -0.7,1.1 -1.6,1.9 -3,2.5 -1.4,0.5 -3,1 -4.8,1 -2.6,0 -4.6,-0.7 -6.4,-1.9 -1.9,-0.8 -2.7,-2.8 -2.6,-5.7 z"
   id="path34" />
</g>
</svg>
