<?xml version="1.0" encoding="UTF-8" standalone="no"?>
<!-- Generator: Adobe Illustrator 21.0.2, SVG Export Plug-In . SVG Version: 6.00 Build 0)  -->

<svg
   version="1.1"
   id="Layer_1"
   x="0px"
   y="0px"
   viewBox="0 0 183.48718 196.58765"
   xml:space="preserve"
   width="183.48718"
   height="196.58766"
   xmlns="http://www.w3.org/2000/svg"
   xmlns:svg="http://www.w3.org/2000/svg"><defs
   id="defs34" />
<style
   type="text/css"
   id="style1">
	.st0{fill:#71777A;}
	.st1{fill:none;stroke:#71777A;stroke-width:0.6752;stroke-miterlimit:10;}
	.st2{fill:#FFFFFF;}
	.st3{fill:#E40520;}
	.st4{fill:#E40520;stroke:#E40520;stroke-width:0.6872;stroke-miterlimit:10;}
	.st5{fill:#142534;}
</style>










<g
   id="layer1"
   transform="translate(1025.2111,273.42091)"><g
     id="g1"
     transform="translate(-3.7092007,-2.8849338)"><polygon
       class="st0"
       points="110.2,48.8 2,48.8 2,1.8 184.8,1.7 184.8,48.8 "
       id="polygon1"
       transform="translate(-1023.1583,-271.89817)" /><polygon
       class="st1"
       points="110.2,48.8 2,48.8 2,1.8 184.8,1.7 184.8,48.8 "
       id="polygon2"
       transform="translate(-1023.1583,-271.89817)" /><polygon
       class="st2"
       points="14.7,39.5 8.4,39.5 8.4,10.8 30.1,10.8 30,16.7 14.7,16.7 14.7,24.6 26.6,24.6 26.6,30.4 14.7,30.4 "
       id="polygon3"
       transform="translate(-1023.1583,-271.89817)" /><path
       class="st2"
       d="m -936.45835,-255.29817 c 0,0 -11.1,0 -12.1,0 -1.2,0 -2.2,0.4 -2.8,1.4 -0.5,0.8 -0.3,2.2 0.4,2.9 1.1,1.1 1.6,1 5.8,1.1 0.6,-0.1 1.1,-0.1 1.6,0 3.4,0.2 6.8,2.4 7.9,5.8 1.3,3.7 0,7.5 -2.8,10 -1.8,1.4 -3.1,1.7 -6.2,1.8 h -13.1 v -5.9 c 3.2,0 7.9,0 10.8,0 1.7,0 4.9,0.4 5.7,-1.9 0.3,-1 0.4,-2.8 -1.6,-3.7 -3.3,-1 -8,0.5 -10.6,-1.5 -2.6,-1.5 -4.4,-4.3 -4.3,-7.4 0.1,-3.1 1.7,-6.1 4.6,-7.5 1.7,-0.7 3.8,-0.9 5.4,-0.9 3.6,0 8.8,0 11.3,0 0,0 0,5.8 0,5.8 z"
       id="path3" /><path
       class="st2"
       d="m -915.85835,-248.69817 c -0.9,1.3 -2.3,1.6 -3.8,1.8 v 7.4 c 1.9,3.1 4.4,7.2 4.4,7.2 h 7.1 c 0,0 -5.1,-8.7 -5.9,-10.2 1.3,-0.5 2.8,-1.5 3.8,-2.7 1.9,-2.8 2.3,-7.2 0.7,-10.3 -1.8,-3.7 -5.8,-5.5 -9.5,-5.5 h -0.5 v 5.9 c 1.6,0.1 3.2,0.7 4.2,2.2 0.4,1.2 0.3,3.1 -0.5,4.2 z m -3.9,1.8 c -0.6,0 -1.3,0 -1.8,0 -1.1,-0.1 -2.7,0 -2.7,0 v -8.2 c 1.2,0.1 2.9,-0.1 4.6,0.1 v -5.9 l -10.9,-0.1 v 28.8 h 6.3 v -9.2 c 0,0 2.7,0 3.4,0 l 1.2,1.9 z"
       id="path4" /><g
       id="g10"
       transform="translate(-1023.1583,-271.89817)">
	<path
   class="st3"
   d="M 35.6,57.7 V 58 c 0.1,13 8.6,25.7 20.8,30.5 4.6,2.1 9.2,2.6 14.8,2.6 H 72 v 24.5 c 0,0 -1.3,0.1 -2.1,0.1 C 47,116.2 25.4,102.4 16.2,81.3 14.6,77.7 13.4,74 12.4,70.2 L 12.3,69.7 H 2 v -12 h 27.9 z"
   id="path5" />
	<path
   class="st4"
   d="M 35.6,57.7 V 58 c 0.1,13 8.6,25.7 20.8,30.5 4.6,2.1 9.2,2.6 14.8,2.6 H 72 v 24.5 c 0,0 -1.3,0.1 -2.1,0.1 C 47,116.2 25.4,102.4 16.2,81.3 14.6,77.7 13.4,74 12.4,70.2 L 12.3,69.7 H 2 v -12 h 27.9 z"
   id="path6" />
	<polygon
   class="st3"
   points="184.8,57.7 184.8,69.8 175.7,69.8 175.7,115.4 120.7,115.4 120.7,91.1 151.1,91.1 151.1,57.7 "
   id="polygon6" />
	<polygon
   class="st4"
   points="184.8,57.7 184.8,69.8 175.7,69.8 175.7,115.4 120.7,115.4 120.7,91.1 151.1,91.1 151.1,57.7 "
   id="polygon7" />
	<polygon
   class="st3"
   points="84.1,63.7 108.7,63.7 108.7,91.3 84.1,91.2 "
   id="polygon8" />
	<polygon
   class="st4"
   points="84.1,63.7 108.7,63.7 108.7,91.3 84.1,91.2 "
   id="polygon9" />
	<path
   class="st3"
   d="m 108.7,115.9 v 20.9 h 0.3 c 12.4,-0.5 24.5,0.9 34.5,6.6 14.3,7.7 25.1,22.5 27.9,38 0.1,0.5 0.2,1.1 0.2,1.1 l 13.1,0.1 v 15 h -36.5 c 0,0 -0.1,0.1 -0.1,-0.5 0.5,-8.2 -1,-15.8 -5.3,-22.2 -6.3,-9.1 -16,-13.8 -26.8,-13.6 H 84.1 v 27.2 H 16.9 v 8.7 H 2 V 164 H 59.7 V 127.7 H 84.2 V 96.2 Z"
   id="path9" />
	<path
   class="st4"
   d="m 108.7,115.9 v 20.9 h 0.3 c 12.4,-0.5 24.5,0.9 34.5,6.6 14.3,7.7 25.1,22.5 27.9,38 0.1,0.5 0.2,1.1 0.2,1.1 l 13.1,0.1 v 15 h -36.5 c 0,0 -0.1,0.1 -0.1,-0.5 0.5,-8.2 -1,-15.8 -5.3,-22.2 -6.3,-9.1 -16,-13.8 -26.8,-13.6 H 84.1 v 27.2 H 16.9 v 8.7 H 2 V 164 H 59.7 V 127.7 H 84.2 V 96.2 Z"
   id="path10" />
</g><path
       class="st2"
       d="m -889.65835,-237.89817 v 0 6.4 0 c 8.4,0 15.3,-6.9 15.3,-15.3 0,-8.5 -6.9,-15.2 -15.3,-15.2 v 0 6.3 0 c 4.9,0 8.9,4 8.9,9 0,4.8 -4,8.8 -8.9,8.8 z m 0,0 c -4.9,0 -9,-4 -9,-8.9 0,-4.9 4,-9 9,-9 v -6.2 c -8.5,0 -15.4,6.7 -15.4,15.2 0,8.4 6.9,15.3 15.4,15.3 z"
       id="path11" /><path
       class="st2"
       d="m -849.15835,-239.89817 c -1.6,1.5 -3.9,2.4 -6.3,2.4 -5.1,0 -9.2,-4.2 -9.2,-9.2 0,-5.1 4.2,-9.2 9.2,-9.2 2.3,0 4.6,0.7 6.1,2 l 4,-4.4 c -2.7,-2.3 -6.3,-3.7 -10.2,-3.7 -8.5,0 -15.4,6.7 -15.4,15.2 0,8.4 6.9,15.3 15.4,15.3 3.9,0 7.5,-1.5 10.2,-4 z"
       id="path12" /><path
       class="st2"
       d="m -976.25835,-237.89817 v 0 l -0.1,6.4 h 0.1 c 8.4,0 15.3,-6.9 15.3,-15.3 0,-8.5 -6.9,-15.2 -15.3,-15.2 h -0.1 v 6.3 h 0.1 c 4.9,0 8.9,4 8.9,9 0,4.8 -4.1,8.8 -8.9,8.8 z m -0.1,0 c -4.9,0 -8.9,-4 -8.9,-8.9 0,-4.9 4,-9 8.9,-9 v -6.2 c -8.4,0 -15.3,6.7 -15.3,15.2 0,8.4 6.9,15.3 15.3,15.3 0,0 0,-6.4 0,-6.4 z"
       id="path13" /></g></g></svg>
