<?xml version="1.0" encoding="UTF-8" standalone="no"?>
<!-- Generator: Adobe Illustrator 27.5.0, SVG Export Plug-In . SVG Version: 6.00 Build 0)  -->

<svg
   version="1.1"
   x="0px"
   y="0px"
   viewBox="0 0 154.01563 173.01563"
   xml:space="preserve"
   id="svg74"
   width="154.01562"
   height="173.01562"
   sodipodi:docname="back.svg"
   inkscape:version="1.3.2 (091e20e, 2023-11-25, custom)"
   xmlns:inkscape="http://www.inkscape.org/namespaces/inkscape"
   xmlns:sodipodi="http://sodipodi.sourceforge.net/DTD/sodipodi-0.dtd"
   xmlns="http://www.w3.org/2000/svg"
   xmlns:svg="http://www.w3.org/2000/svg"><sodipodi:namedview
   id="namedview1"
   pagecolor="#ffffff"
   bordercolor="#999999"
   borderopacity="1"
   inkscape:showpageshadow="2"
   inkscape:pageopacity="0"
   inkscape:pagecheckerboard="0"
   inkscape:deskcolor="#d1d1d1"
   inkscape:zoom="0.48736813"
   inkscape:cx="-66576.984"
   inkscape:cy="-251607.55"
   inkscape:window-width="1366"
   inkscape:window-height="715"
   inkscape:window-x="-8"
   inkscape:window-y="22"
   inkscape:window-maximized="1"
   inkscape:current-layer="svg74" /><defs
   id="defs74" />



<g
   inkscape:groupmode="layer"
   id="layer1"
   inkscape:label="Layer 1"
   style="display:inline"
   transform="translate(66291.429,251677.81)"><g
     id="g17"
     style="display:inline"
     transform="matrix(-1,0,0,1,-66054.446,-251992.8)"
     inkscape:export-filename="back.png"
     inkscape:export-xdpi="96"
     inkscape:export-ydpi="96">
		<path
   style="opacity:0.18"
   d="m 199.053,333.991 h -78.154 c -20.862,0 -37.931,17.069 -37.931,37.931 v 78.154 c 0,20.862 17.069,37.931 37.931,37.931 h 78.154 c 20.862,0 37.931,-17.069 37.931,-37.931 v -78.154 c 0,-20.862 -17.069,-37.931 -37.931,-37.931 z"
   id="path14" />
		<path
   style="fill:#5f6bcc"
   d="m 199.053,323.991 h -78.154 c -20.862,0 -37.931,17.069 -37.931,37.931 v 78.154 c 0,20.862 17.069,37.931 37.931,37.931 h 78.154 c 20.862,0 37.931,-17.069 37.931,-37.931 v -78.154 c 0,-20.862 -17.069,-37.931 -37.931,-37.931 z"
   id="path15" />
		<path
   style="fill:#8690cc"
   d="m 199.053,469.007 h -78.154 c -20.862,0 -37.931,-17.069 -37.931,-37.931 v -78.154 c 0,-20.862 17.069,-37.931 37.931,-37.931 h 78.154 c 20.862,0 37.931,17.069 37.931,37.931 v 78.154 c 0,20.862 -17.069,37.931 -37.931,37.931 z"
   id="path16" />
		<path
   style="fill:#edf2e9"
   d="m 141.293,360.167 53.765,31.041 c 4.077,2.354 4.077,8.239 0,10.593 l -53.186,30.707 c -5.112,2.951 -11.025,-2.335 -8.663,-7.744 l 10.695,-24.492 c 0.663,-1.518 0.682,-3.239 0.053,-4.771 l -11.38,-27.715 c -2.216,-5.396 3.663,-10.536 8.716,-7.619 z"
   id="path17" />
	</g></g></svg>
